<svg xmlns="http://www.w3.org/2000/svg" viewBox="70 14 686 468" width="686" height="468" role="img" aria-label="JISIC" xmlns:c2pa="http://c2pa.org/manifest"><metadata><c2pa:manifest>AAAWgmp1bWIAAAAeanVtZGMycGEAEQAQgAAAqgA4m3EDYzJwYQAAABZcanVtYgAAAEdqdW1kYzJtYQARABCAAACqADibcQN1cm46YzJwYTpjYzRmZDUwZS0xMTM4LTRkN2QtODAzZC1iYjk0NzJkYjk3YzIAAAADl2p1bWIAAAApanVtZGMyYXMAEQAQgAAAqgA4m3EDYzJwYS5hc3NlcnRpb25zAAAAALxqdW1iAAAARGp1bWRjYm9yABEAEIAAAKoAOJtxE2MycGEuaW5ncmVkaWVudC52MwAAAAAYYzJzaPhm5x7zA6nXKXSRnm5EIYkAAABwY2JvcqNpZGM6Zm9ybWF0bWltYWdlL3N2Zyt4bWxqaW5zdGFuY2VJRHgseG1wOmlpZDowZmQwODdmMS02OTU3LTQzOWQtOGU2MC01YjU0ZTYyYWUzMWVscmVsYXRpb25zaGlwaHBhcmVudE9mAAAB4mp1bWIAAABBanVtZGNib3IAEQAQgAAAqgA4m3ETYzJwYS5hY3Rpb25zLnYyAAAAABhjMnNoNIHKHSXmMrBY7NTcOp+yxgAAAZljYm9yomdhY3Rpb25zgqJmYWN0aW9ua2MycGEub3BlbmVkanBhcmFtZXRlcnOha2luZ3JlZGllbnRzgaJjdXJseC1zZWxmI2p1bWJmPWMycGEuYXNzZXJ0aW9ucy9jMnBhLmluZ3JlZGllbnQudjNkaGFzaFgg66Jd43Nz0Rb5YS9MxdrOvNsGzNXyJ5t3VYbPOHT6+2ekZmFjdGlvbngdY29tLmFudGhyb3BpYy5jbGF1ZGUucHJvdmlkZWRqcGFyYW1ldGVyc6F4H2NvbS5hbnRocm9waWMub3JpZ2luLWNvbmZpZGVuY2VndW5rbm93bmtkZXNjcmlwdGlvbnhmQ2xhdWRlIHByb3ZpZGVkIHRoaXMgZmlsZSBhdCB0aGUgcmVxdWVzdCBvZiBhIHVzZXIgYW5kIG1heSBoYXZlIGNyZWF0ZWQgb3IgbW9kaWZpZWQgdGhlIGZpbGUgY29udGVudHMubXNvZnR3YXJlQWdlbnShZG5hbWVmQ2xhdWRlcmFsbEFjdGlvbnNJbmNsdWRlZPUAAADIanVtYgAAAEBqdW1kY2JvcgARABCAAACqADibcRNjMnBhLmhhc2guZGF0YQAAAAAYYzJzaFqHW7HPV2EItPmPN1LHfv0AAACAY2JvcqVjYWxnZnNoYTI1NmNwYWRNAAAAAAAAAAAAAAAAAGRoYXNoWCCJ2cWWaDiblwCnTUNErWwuA/JPlCmxoUO/AkDFhtCsi2RuYW1lbmp1bWJmIG1hbmlmZXN0amV4Y2x1c2lvbnOBomVzdGFydBi2Zmxlbmd0aBkeBAAAAj5qdW1iAAAAJ2p1bWRjMmNsABEAEIAAAKoAOJtxA2MycGEuY2xhaW0udjIAAAACD2Nib3KlY2FsZ2ZzaGEyNTZpc2lnbmF0dXJleE1zZWxmI2p1bWJmPS9jMnBhL3VybjpjMnBhOmNjNGZkNTBlLTExMzgtNGQ3ZC04MDNkLWJiOTQ3MmRiOTdjMi9jMnBhLnNpZ25hdHVyZWppbnN0YW5jZUlEeCx4bXA6aWlkOmI1MDdmYmVmLWM5ZjEtNDA5OS1hOTYzLTRhMzlkNDhkMWJlY3JjcmVhdGVkX2Fzc2VydGlvbnODomN1cmx4LXNlbGYjanVtYmY9YzJwYS5hc3NlcnRpb25zL2MycGEuaW5ncmVkaWVudC52M2RoYXNoWCDrol3jc3PRFvlhL0zF2s682wbM1fInm3dVhs84dPr7Z6JjdXJseCpzZWxmI2p1bWJmPWMycGEuYXNzZXJ0aW9ucy9jMnBhLmFjdGlvbnMudjJkaGFzaFggbKCr/MLbxzUsrR2PIrYJk3D4Pwbq6pwQUa1/lmFzzKeiY3VybHgpc2VsZiNqdW1iZj1jMnBhLmFzc2VydGlvbnMvYzJwYS5oYXNoLmRhdGFkaGFzaFggXi3GEUzjJgCraJKvWksONhvmviowTjpVlhLqZ2pXz310Y2xhaW1fZ2VuZXJhdG9yX2luZm+jZG5hbWVvQW50aHJvcGljIEZpbGVzZ3ZlcnNpb25lMS4wLjBrc3BlY1ZlcnNpb25lMi40LjAAABA4anVtYgAAAChqdW1kYzJjcwARABCAAACqADibcQNjMnBhLnNpZ25hdHVyZQAAABAIY2JvctKEWQISogEmGCFZAgowggIGMIIBjaADAgECAhRA5aAK7sI50L64g/oGQgU9Z1UTADAKBggqhkjOPQQDAzBJMRcwFQYDVQQKEw5BbnRocm9waWMsIFBCQzEuMCwGA1UEAxMlQW50aHJvcGljIENvbnRlbnQgQ3JlZGVudGlhbHMgUm9vdCBDQTAeFw0yNjA4MDcxODQzNTZaFw0yODA4MDYxOTQzNTZaMEQxFzAVBgNVBAoTDkFudGhyb3BpYywgUEJDMSkwJwYDVQQDEyBBbnRocm9waWMgQ2xhdWRlIENvbnRlbnQgU2lnbmluZzBZMBMGByqGSM49AgEGCCqGSM49AwEHA0IABJh6CmvLUBgFFNU0vUKlOVtE6djd17L5SuwX0LemFisBM3dkd/3cyjxFA3Qo5S46fX0/ihY0VZ7mfb9KF703t5OjWDBWMA4GA1UdDwEB/wQEAwIHgDAVBgNVHSUEDjAMBgorBgEEAYPoXgIBMAwGA1UdEwEB/wQCMAAwHwYDVR0jBBgwFoAUzlHiBIFOZFsj+OPEz5o+nMHXXMIwCgYIKoZIzj0EAwMDZwAwZAIwMXMdFJ4BetLLVY7ORuE9noqbbAZOZn/aArXyTwFAZfKrPzxF2vPoJNf1+UCdg1XGAjBwX1zd9WGqYkqmL5SFqw1QySjr1zJfpJM9+1rdDwSPLMOPOjKuiXjoU/pUUeG9RwmhY3BhZFkNngAAAAAAAAAAAAAAAAAAAAAAAAAAAAAAAAAAAAAAAAAAAAAAAAAAAAAAAAAAAAAAAAAAAAAAAAAAAAAAAAAAAAAAAAAAAAAAAAAAAAAAAAAAAAAAAAAAAAAAAAAAAAAAAAAAAAAAAAAAAAAAAAAAAAAAAAAAAAAAAAAAAAAAAAAAAAAAAAAAAAAAAAAAAAAAAAAAAAAAAAAAAAAAAAAAAAAAAAAAAAAAAAAAAAAAAAAAAAAAAAAAAAAAAAAAAAAAAAAAAAAAAAAAAAAAAAAAAAAAAAAAAAAAAAAAAAAAAAAAAAAAAAAAAAAAAAAAAAAAAAAAAAAAAAAAAAAAAAAAAAAAAAAAAAAAAAAAAAAAAAAAAAAAAAAAAAAAAAAAAAAAAAAAAAAAAAAAAAAAAAAAAAAAAAAAAAAAAAAAAAAAAAAAAAAAAAAAAAAAAAAAAAAAAAAAAAAAAAAAAAAAAAAAAAAAAAAAAAAAAAAAAAAAAAAAAAAAAAAAAAAAAAAAAAAAAAAAAAAAAAAAAAAAAAAAAAAAAAAAAAAAAAAAAAAAAAAAAAAAAAAAAAAAAAAAAAAAAAAAAAAAAAAAAAAAAAAAAAAAAAAAAAAAAAAAAAAAAAAAAAAAAAAAAAAAAAAAAAAAAAAAAAAAAAAAAAAAAAAAAAAAAAAAAAAAAAAAAAAAAAAAAAAAAAAAAAAAAAAAAAAAAAAAAAAAAAAAAAAAAAAAAAAAAAAAAAAAAAAAAAAAAAAAAAAAAAAAAAAAAAAAAAAAAAAAAAAAAAAAAAAAAAAAAAAAAAAAAAAAAAAAAAAAAAAAAAAAAAAAAAAAAAAAAAAAAAAAAAAAAAAAAAAAAAAAAAAAAAAAAAAAAAAAAAAAAAAAAAAAAAAAAAAAAAAAAAAAAAAAAAAAAAAAAAAAAAAAAAAAAAAAAAAAAAAAAAAAAAAAAAAAAAAAAAAAAAAAAAAAAAAAAAAAAAAAAAAAAAAAAAAAAAAAAAAAAAAAAAAAAAAAAAAAAAAAAAAAAAAAAAAAAAAAAAAAAAAAAAAAAAAAAAAAAAAAAAAAAAAAAAAAAAAAAAAAAAAAAAAAAAAAAAAAAAAAAAAAAAAAAAAAAAAAAAAAAAAAAAAAAAAAAAAAAAAAAAAAAAAAAAAAAAAAAAAAAAAAAAAAAAAAAAAAAAAAAAAAAAAAAAAAAAAAAAAAAAAAAAAAAAAAAAAAAAAAAAAAAAAAAAAAAAAAAAAAAAAAAAAAAAAAAAAAAAAAAAAAAAAAAAAAAAAAAAAAAAAAAAAAAAAAAAAAAAAAAAAAAAAAAAAAAAAAAAAAAAAAAAAAAAAAAAAAAAAAAAAAAAAAAAAAAAAAAAAAAAAAAAAAAAAAAAAAAAAAAAAAAAAAAAAAAAAAAAAAAAAAAAAAAAAAAAAAAAAAAAAAAAAAAAAAAAAAAAAAAAAAAAAAAAAAAAAAAAAAAAAAAAAAAAAAAAAAAAAAAAAAAAAAAAAAAAAAAAAAAAAAAAAAAAAAAAAAAAAAAAAAAAAAAAAAAAAAAAAAAAAAAAAAAAAAAAAAAAAAAAAAAAAAAAAAAAAAAAAAAAAAAAAAAAAAAAAAAAAAAAAAAAAAAAAAAAAAAAAAAAAAAAAAAAAAAAAAAAAAAAAAAAAAAAAAAAAAAAAAAAAAAAAAAAAAAAAAAAAAAAAAAAAAAAAAAAAAAAAAAAAAAAAAAAAAAAAAAAAAAAAAAAAAAAAAAAAAAAAAAAAAAAAAAAAAAAAAAAAAAAAAAAAAAAAAAAAAAAAAAAAAAAAAAAAAAAAAAAAAAAAAAAAAAAAAAAAAAAAAAAAAAAAAAAAAAAAAAAAAAAAAAAAAAAAAAAAAAAAAAAAAAAAAAAAAAAAAAAAAAAAAAAAAAAAAAAAAAAAAAAAAAAAAAAAAAAAAAAAAAAAAAAAAAAAAAAAAAAAAAAAAAAAAAAAAAAAAAAAAAAAAAAAAAAAAAAAAAAAAAAAAAAAAAAAAAAAAAAAAAAAAAAAAAAAAAAAAAAAAAAAAAAAAAAAAAAAAAAAAAAAAAAAAAAAAAAAAAAAAAAAAAAAAAAAAAAAAAAAAAAAAAAAAAAAAAAAAAAAAAAAAAAAAAAAAAAAAAAAAAAAAAAAAAAAAAAAAAAAAAAAAAAAAAAAAAAAAAAAAAAAAAAAAAAAAAAAAAAAAAAAAAAAAAAAAAAAAAAAAAAAAAAAAAAAAAAAAAAAAAAAAAAAAAAAAAAAAAAAAAAAAAAAAAAAAAAAAAAAAAAAAAAAAAAAAAAAAAAAAAAAAAAAAAAAAAAAAAAAAAAAAAAAAAAAAAAAAAAAAAAAAAAAAAAAAAAAAAAAAAAAAAAAAAAAAAAAAAAAAAAAAAAAAAAAAAAAAAAAAAAAAAAAAAAAAAAAAAAAAAAAAAAAAAAAAAAAAAAAAAAAAAAAAAAAAAAAAAAAAAAAAAAAAAAAAAAAAAAAAAAAAAAAAAAAAAAAAAAAAAAAAAAAAAAAAAAAAAAAAAAAAAAAAAAAAAAAAAAAAAAAAAAAAAAAAAAAAAAAAAAAAAAAAAAAAAAAAAAAAAAAAAAAAAAAAAAAAAAAAAAAAAAAAAAAAAAAAAAAAAAAAAAAAAAAAAAAAAAAAAAAAAAAAAAAAAAAAAAAAAAAAAAAAAAAAAAAAAAAAAAAAAAAAAAAAAAAAAAAAAAAAAAAAAAAAAAAAAAAAAAAAAAAAAAAAAAAAAAAAAAAAAAAAAAAAAAAAAAAAAAAAAAAAAAAAAAAAAAAAAAAAAAAAAAAAAAAAAAAAAAAAAAAAAAAAAAAAAAAAAAAAAAAAAAAAAAAAAAAAAAAAAAAAAAAAAAAAAAAAAAAAAAAAAAAAAAAAAAAAAAAAAAAAAAAAAAAAAAAAAAAAAAAAAAAAAAAAAAAAAAAAAAAAAAAAAAAAAAAAAAAAAAAAAAAAAAAAAAAAAAAAAAAAAAAAAAAAAAAAAAAAAAAAAAAAAAAAAAAAAAAAAAAAAAAAAAAAAAAAAAAAAAAAAAAAAAAAAAAAAAAAAAAAAAAAAAAAAAAAAAAAAAAAAAAAAAAAAAAAAAAAAAAAAAAAAAAAAAAAAAAAAAAAAAAAAAAAAAAAAAAAAAAAAAAAAAAAAAAAAAAAAAAAAAAAAAAAAAAAAAAAAAAAAAAAAAAAAAAAAAAAAAAAAAAAAAAAAAAAAAAAAAAAAAAAAAAAAAAAAAAAAAAAAAAAAAAAAAAAAAAAAAAAAAAAAAAAAAAAAAAAAAAAAAAAAAAAAAAAAAAAAAAAAAAPZYQB2qetzE4Omt/bjrR6/gJ6j3bxCCFNwMSQYODKVAxFL/k2/KGPNm/rG+Hz0DdbOnhG6lH45f7WjJqm7eRSmdqKQ=</c2pa:manifest></metadata>
  <defs>
    <linearGradient id="brandW" gradientUnits="objectBoundingBox" x1="0" y1="0" x2="1" y2="0"><stop offset="0" stop-color="#2FC5B4"></stop><stop offset="0.34" stop-color="#4C7AD1"></stop><stop offset="0.62" stop-color="#9B5BC5"></stop><stop offset="0.86" stop-color="#F0479C"></stop><stop offset="1" stop-color="#FA8A7A"></stop></linearGradient>
    <linearGradient id="brandN" x1="100" y1="0" x2="726" y2="0" gradientUnits="userSpaceOnUse"><stop offset="0" stop-color="#2FC5B4"></stop><stop offset="0.34" stop-color="#4C7AD1"></stop><stop offset="0.62" stop-color="#9B5BC5"></stop><stop offset="0.86" stop-color="#F0479C"></stop><stop offset="1" stop-color="#FA8A7A"></stop></linearGradient>
  </defs>
  <g stroke="url(#brandN)" stroke-width="1.8" stroke-linecap="round" opacity="0.4"><line x1="285" y1="135" x2="278" y2="65"></line><line x1="203" y1="90" x2="278" y2="65"></line><line x1="389" y1="44" x2="278" y2="65"></line><line x1="240" y1="364" x2="274" y2="420"></line><line x1="334" y1="450" x2="274" y2="420"></line><line x1="329" y1="353" x2="274" y2="420"></line><line x1="411" y1="304" x2="470" y2="325"></line><line x1="470" y1="325" x2="456" y2="261"></line><line x1="541" y1="327" x2="470" y2="325"></line><line x1="575" y1="220" x2="518" y2="195"></line><line x1="519" y1="262" x2="518" y2="195"></line><line x1="525" y1="117" x2="518" y2="195"></line><line x1="381" y1="113" x2="422" y2="161"></line><line x1="422" y1="161" x2="395" y2="244"></line><line x1="422" y1="161" x2="331" y2="202"></line><line x1="342" y1="285" x2="329" y2="353"></line><line x1="398" y1="372" x2="329" y2="353"></line><line x1="389" y1="44" x2="381" y2="113"></line><line x1="466" y1="69" x2="381" y2="113"></line><line x1="726" y1="324" x2="664" y2="307"></line><line x1="624" y1="361" x2="664" y2="307"></line><line x1="697" y1="247" x2="664" y2="307"></line><line x1="559" y1="444" x2="502" y2="391"></line><line x1="644" y1="423" x2="559" y2="444"></line><line x1="469" y1="452" x2="559" y2="444"></line><line x1="525" y1="117" x2="466" y2="69"></line><line x1="389" y1="44" x2="466" y2="69"></line><line x1="251" y1="276" x2="194" y2="306"></line><line x1="176" y1="370" x2="194" y2="306"></line><line x1="166" y1="242" x2="194" y2="306"></line><line x1="108" y1="311" x2="100" y2="246"></line><line x1="166" y1="242" x2="100" y2="246"></line><line x1="104" y1="177" x2="100" y2="246"></line><line x1="285" y1="135" x2="244" y2="184"></line><line x1="244" y1="184" x2="331" y2="202"></line><line x1="244" y1="184" x2="251" y2="276"></line><line x1="251" y1="276" x2="240" y2="364"></line><line x1="251" y1="276" x2="342" y2="285"></line><line x1="636" y1="197" x2="697" y2="247"></line><line x1="726" y1="324" x2="697" y2="247"></line><line x1="411" y1="304" x2="395" y2="244"></line><line x1="456" y1="261" x2="395" y2="244"></line><line x1="342" y1="285" x2="395" y2="244"></line><line x1="575" y1="220" x2="636" y2="197"></line><line x1="677" y1="145" x2="636" y2="197"></line><line x1="525" y1="117" x2="603" y2="115"></line><line x1="677" y1="145" x2="603" y2="115"></line><line x1="603" y1="115" x2="636" y2="197"></line><line x1="598" y1="286" x2="664" y2="307"></line><line x1="575" y1="220" x2="598" y2="286"></line><line x1="541" y1="327" x2="598" y2="286"></line><line x1="726" y1="324" x2="709" y2="386"></line><line x1="709" y1="386" x2="644" y2="423"></line><line x1="709" y1="386" x2="624" y2="361"></line><line x1="469" y1="452" x2="502" y2="391"></line><line x1="502" y1="391" x2="470" y2="325"></line><line x1="502" y1="391" x2="541" y2="327"></line><line x1="176" y1="370" x2="160" y2="434"></line><line x1="110" y1="378" x2="160" y2="434"></line><line x1="160" y1="434" x2="240" y2="364"></line><line x1="519" y1="262" x2="541" y2="327"></line><line x1="624" y1="361" x2="644" y2="423"></line><line x1="110" y1="378" x2="176" y2="370"></line><line x1="108" y1="311" x2="110" y2="378"></line><line x1="342" y1="285" x2="411" y2="304"></line><line x1="203" y1="90" x2="158" y2="138"></line><line x1="104" y1="177" x2="158" y2="138"></line><line x1="158" y1="138" x2="244" y2="184"></line><line x1="624" y1="361" x2="598" y2="286"></line><line x1="331" y1="202" x2="395" y2="244"></line><line x1="285" y1="135" x2="331" y2="202"></line><line x1="331" y1="202" x2="342" y2="285"></line><line x1="398" y1="372" x2="411" y2="304"></line><line x1="398" y1="372" x2="470" y2="325"></line><line x1="203" y1="90" x2="285" y2="135"></line><line x1="176" y1="370" x2="240" y2="364"></line><line x1="240" y1="364" x2="194" y2="306"></line><line x1="104" y1="177" x2="166" y2="242"></line><line x1="469" y1="452" x2="398" y2="372"></line><line x1="411" y1="304" x2="456" y2="261"></line><line x1="519" y1="262" x2="456" y2="261"></line><line x1="334" y1="450" x2="329" y2="353"></line><line x1="334" y1="450" x2="398" y2="372"></line><line x1="108" y1="311" x2="194" y2="306"></line><line x1="677" y1="145" x2="697" y2="247"></line><line x1="575" y1="220" x2="709" y2="386"></line><line x1="329" y1="353" x2="395" y2="244"></line><line x1="166" y1="242" x2="677" y2="145"></line><line x1="104" y1="177" x2="331" y2="202"></line><line x1="381" y1="113" x2="677" y2="145"></line><line x1="176" y1="370" x2="395" y2="244"></line><line x1="381" y1="113" x2="278" y2="65"></line><line x1="709" y1="386" x2="469" y2="452"></line><line x1="709" y1="386" x2="456" y2="261"></line><line x1="469" y1="452" x2="525" y2="117"></line></g>
  <g fill="url(#brandN)" opacity="0.85"><circle cx="278" cy="65" r="7"></circle><circle cx="274" cy="420" r="5"></circle><circle cx="470" cy="325" r="5"></circle><circle cx="518" cy="195" r="6"></circle><circle cx="422" cy="161" r="5"></circle><circle cx="329" cy="353" r="7"></circle><circle cx="381" cy="113" r="6"></circle><circle cx="664" cy="307" r="5"></circle><circle cx="559" cy="444" r="5"></circle><circle cx="466" cy="69" r="6"></circle><circle cx="194" cy="306" r="7"></circle><circle cx="100" cy="246" r="5"></circle><circle cx="244" cy="184" r="6"></circle><circle cx="251" cy="276" r="5"></circle><circle cx="697" cy="247" r="5"></circle><circle cx="395" cy="244" r="7"></circle><circle cx="636" cy="197" r="5"></circle><circle cx="603" cy="115" r="5"></circle><circle cx="598" cy="286" r="6"></circle><circle cx="709" cy="386" r="5"></circle><circle cx="502" cy="391" r="7"></circle><circle cx="160" cy="434" r="6"></circle><circle cx="541" cy="327" r="5"></circle><circle cx="644" cy="423" r="5"></circle><circle cx="110" cy="378" r="6"></circle><circle cx="342" cy="285" r="7"></circle><circle cx="158" cy="138" r="5"></circle><circle cx="624" cy="361" r="6"></circle><circle cx="331" cy="202" r="5"></circle><circle cx="398" cy="372" r="5"></circle><circle cx="525" cy="117" r="7"></circle><circle cx="389" cy="44" r="5"></circle><circle cx="203" cy="90" r="5"></circle><circle cx="240" cy="364" r="6"></circle><circle cx="166" cy="242" r="5"></circle><circle cx="469" cy="452" r="7"></circle><circle cx="456" cy="261" r="6"></circle><circle cx="334" cy="450" r="5"></circle><circle cx="726" cy="324" r="5"></circle><circle cx="108" cy="311" r="6"></circle><circle cx="285" cy="135" r="7"></circle><circle cx="677" cy="145" r="5"></circle><circle cx="411" cy="304" r="6"></circle><circle cx="519" cy="262" r="5"></circle><circle cx="575" cy="220" r="5"></circle><circle cx="176" cy="370" r="7"></circle><circle cx="104" cy="177" r="5"></circle></g>
  <g transform="translate(172.8,189.5) scale(0.78)"><path d="M86.44 0 L86.44 98 C86.44 112.44 79.33 123.78 55.78 123.78 L6.44 123.78 L6.44 150 L57.33 150 C97.11 150 112.89 128.22 112.89 98.22 L112.89 0 Z M161.11 0 L161.11 150 L187.33 150 L187.33 0 Z M276.67 0 C243.33 0 230 18.22 230 43.11 C230 64 239.33 86.44 279.33 86.44 L314.22 86.44 C332.67 86.44 337.78 95.33 337.78 105.11 C337.78 116 331.33 123.78 317.11 123.78 L232.67 123.78 L232.67 150 L316.22 150 C350.44 150 364 131.33 364 106 C364 84.44 354.44 61.78 313.56 61.78 L278.44 61.78 C260.89 61.78 256.22 53.11 256.22 44 C256.22 33.56 262.22 26.22 275.78 26.22 L352.67 26.22 L352.67 0 Z M406.44 0 L406.44 150 L432.67 150 L432.67 0 Z M544.44 0 C500.89 0 476.67 24.67 476.67 75.11 C476.67 125.33 500.67 150 544.44 150 L602.44 150 L602.44 123.78 L544.44 123.78 C515.33 123.78 502.89 109.33 502.89 75.11 C502.89 40.67 515.56 26.22 544.44 26.22 L602.44 26.22 L602.44 0 Z" fill="url(#brandW)" stroke="url(#brandW)" stroke-width="16" stroke-linejoin="round" stroke-linecap="round"></path></g>
</svg>